<?xml version="1.0" encoding="UTF-8" standalone="no"?>
<svg
   width="852.726"
   height="635.754"
   viewBox="0 0 225.617 168.21"
   version="1.1"
   id="svg4"
   sodipodi:docname="favicon.dark.svg"
   inkscape:version="1.4.3 (0d15f75042, 2025-12-25)"
   xmlns:inkscape="http://www.inkscape.org/namespaces/inkscape"
   xmlns:sodipodi="http://sodipodi.sourceforge.net/DTD/sodipodi-0.dtd"
   xmlns="http://www.w3.org/2000/svg"
   xmlns:svg="http://www.w3.org/2000/svg">
  <defs
     id="defs4" />
  <sodipodi:namedview
     id="namedview4"
     pagecolor="#ffffff"
     bordercolor="#000000"
     borderopacity="0.25"
     inkscape:showpageshadow="2"
     inkscape:pageopacity="0.0"
     inkscape:pagecheckerboard="0"
     inkscape:deskcolor="#d1d1d1"
     inkscape:zoom="1.2316084"
     inkscape:cx="426.67783"
     inkscape:cy="317.87701"
     inkscape:window-width="1920"
     inkscape:window-height="994"
     inkscape:window-x="0"
     inkscape:window-y="0"
     inkscape:window-maximized="1"
     inkscape:current-layer="g2"
     showguides="false" />
  <g
     font-family="Croissant One"
     id="g2">
    <path
       style="-inkscape-font-specification:'Croissant One';fill:#c8a586;fill-opacity:1"
       d="M55.898 33.696h32.03q21.354 0 34.523 11.626 13.168 11.507 13.168 29.895 0 18.27-13.168 29.895-13.169 11.626-34.522 11.626H55.898v-4.745h9.49V38.44h-9.49zm32.03 4.745h-4.745v73.552h4.746q13.761 0 21.472-9.847 7.83-9.965 7.83-26.93 0-16.963-7.83-26.81-7.711-9.965-21.472-9.965z"
       aria-label="D"
       font-size="118.632"
       id="path1" />
    <path
       style="-inkscape-font-specification:'Croissant One';fill:#c8a586;fill-opacity:1"
       d="M160.31 39.3v66.325q0 14.817-9.032 21.873-8.89 7.056-23.99 7.056-8.608 0-16.37-4.516-7.76-4.516-7.76-10.725 0-2.399 1.552-5.503l8.467-16.37 5.08 1.553-1.27 8.749q-.565 4.939-.565 9.314 0 4.374 2.964 7.62 3.104 3.245 8.185 3.245 5.22 0 8.325-3.527 3.246-3.528 3.246-10.584V39.3h-13.406v-5.644h43.04v5.645z"
       aria-label="J"
       font-size="141.116"
       id="path2" />
  </g>
  <path
     d="M35.809 167.842q-7.523 0-12.873-4.848-5.182-4.848-5.182-13.207 0-5.015 1.17-16.216 1.338-11.033 1.338-17.887 0-6.855-1.338-13.876-1.337-7.188-3.845-8.359-2.842 1.505-5.35 1.505-9.696 0-9.696-8.359-.334-4.18 2.675-6.854 3.01-2.675 6.52-2.675t5.851 1.003q1.839-2.34 3.51-9.529 1.84-7.188 1.84-13.875t-1.338-17.72q-1.17-11.201-1.17-16.216 0-8.36 5.182-13.374 5.35-5.016 12.873-5.016 4.012 0 5.517 3.01.668 1.337.668 3.009 0 1.504-1.003 3.009-1.504 3.176-5.182 3.176-6.353 0-6.353 7.857 0 3.177 1.17 13.709 1.338 10.532 1.338 18.389 0 19.225-8.192 29.924 3.344 4.68 4.347 6.52 1.003 1.839 2.34 8.693 1.338 6.854 1.338 15.547 0 8.693-1.338 19.225-1.17 10.532-1.17 13.708 0 7.523 6.353 7.523 3.678 0 5.35 3.177.668 1.504.668 3.009 0 1.504-.669 3.009-1.504 3.009-5.35 3.009z"
     style="-inkscape-font-specification:'Delius Swash Caps';fill:#c8a586;fill-opacity:1"
     aria-label="{"
     font-size="165.183"
     font-family="Delius Swash Caps"
     id="path3" />
  <path
     d="M189.223 168.21q7.646 0 13.083-4.927 5.267-4.928 5.267-13.423 0-5.098-1.19-16.481-1.359-11.214-1.359-18.18 0-6.967 1.36-14.103 1.359-7.306 3.907-8.496 2.889 1.53 5.437 1.53 9.855 0 9.855-8.496.34-4.248-2.718-6.966-3.059-2.719-6.627-2.719-3.568 0-5.947 1.02-1.869-2.379-3.568-9.685-1.869-7.306-1.869-14.102 0-6.797 1.36-18.01 1.189-11.385 1.189-16.482 0-8.495-5.267-13.593Q196.699 0 189.053 0q-4.078 0-5.607 3.058-.68 1.36-.68 3.059 0 1.529 1.02 3.058 1.529 3.228 5.267 3.228 6.456 0 6.456 7.986 0 3.228-1.19 13.933-1.358 10.704-1.358 18.69 0 19.54 8.325 30.413-3.398 4.758-4.417 6.627-1.02 1.869-2.38 8.835-1.358 6.966-1.358 15.802 0 8.835 1.359 19.54 1.19 10.703 1.19 13.932 0 7.646-6.457 7.646-3.738 0-5.437 3.228-.68 1.529-.68 3.058 0 1.53.68 3.059 1.529 3.058 5.437 3.058z"
     style="-inkscape-font-specification:'Delius Swash Caps';fill:#c8a586;fill-opacity:1"
     aria-label="{"
     font-size="169.909"
     font-family="Delius Swash Caps"
     id="path4" />
</svg>
